<?xml version="1.0" encoding="UTF-8"?>
<svg width="58px" height="58px" viewBox="0 0 58 58" version="1.1" xmlns="http://www.w3.org/2000/svg" xmlns:xlink="http://www.w3.org/1999/xlink">
    <!-- Generator: Sketch 55.2 (78181) - https://sketchapp.com -->
    <title>document</title>
    <desc>Created with Sketch.</desc>
    <g id="Catapillr-app" stroke="none" stroke-width="1" fill="none" fill-rule="evenodd" stroke-linecap="square">
        <g id="cerification_provider2" transform="translate(-691.000000, -851.000000)" stroke="#32334F" stroke-width="2">
            <g id="Group-13" transform="translate(426.000000, 162.000000)">
                <g id="Group-5" transform="translate(0.000000, 296.000000)">
                    <g id="section" transform="translate(0.000000, 311.000000)">
                        <g id="yes" transform="translate(1.000000, 40.000000)">
                            <g id="Group-3" transform="translate(219.000000, 43.000000)">
                                <g id="document" transform="translate(46.000000, 0.000000)">
                                    <path d="M20,30 L48,30" id="Path"></path>
                                    <rect id="Rectangle" x="20" y="9" width="28" height="13"></rect>
                                    <path d="M48,46 L20,46" id="Path"></path>
                                    <path d="M48,38 L20,38" id="Path"></path>
                                    <path d="M7,32 L0,32 L0,50 C0.00988440334,53.3096056 2.6903944,55.9901156 6,56" id="Path"></path>
                                    <path d="M12,0 L12,50 C11.9901156,53.3096056 9.3096056,55.9901156 6,56 L50,56 C53.3096056,55.9901156 55.9901156,53.3096056 56,50 L56,0 L12,0 Z" id="Path"></path>
                                </g>
                            </g>
                        </g>
                    </g>
                </g>
            </g>
        </g>
    </g>
</svg>