<svg width="14px" height="15px" viewBox="0 0 14 15" version="1.1" xmlns="http://www.w3.org/2000/svg" xmlns:xlink="http://www.w3.org/1999/xlink">
    <g id="App---mobile" stroke="none" stroke-width="1" fill="none" fill-rule="evenodd">
        <g id="WEB-APP-NAV" transform="translate(-91.000000, -288.000000)">
            <rect fill="#FFFFFF" x="0" y="0" width="320" height="568"></rect>
            <g id="Group" transform="translate(86.000000, 279.000000)" fill="#fc8f14" fill-rule="nonzero">
                <g id="Icon/Logout" transform="translate(0.000000, 4.000000)">
                    <path d="M12,20 C9.09786209,20 6.49675096,18.2090566 5.46110311,15.4979981 C4.42545525,12.7869396 5.17007807,9.71798661 7.333,7.783 L8.667,9.273 C7.12163267,10.6549698 6.58939503,12.8472559 7.32905843,14.7839796 C8.06872182,16.7207034 9.92683799,18.0000781 12,18.0000781 C14.073162,18.0000781 15.9312782,16.7207034 16.6709416,14.7839796 C17.410605,12.8472559 16.8783673,10.6549698 15.333,9.273 L16.666,7.783 C18.8287858,9.71786473 19.5734644,12.7865694 18.5380754,15.4975311 C17.5026864,18.2084928 14.9019551,19.9994957 12,20 Z M11,5 L13,5 L13,12 L11,12 L11,5 Z" id="Fill"></path>
                </g>
            </g>
        </g>
    </g>
</svg>
