<?xml version="1.0" encoding="UTF-8"?>
<svg width="62px" height="55px" viewBox="0 0 62 55" version="1.1" xmlns="http://www.w3.org/2000/svg" xmlns:xlink="http://www.w3.org/1999/xlink">
    <!-- Generator: Sketch 55.2 (78181) - https://sketchapp.com -->
    <title>migration</title>
    <desc>Created with Sketch.</desc>
    <g id="Catapillr-app" stroke="none" stroke-width="1" fill="none" fill-rule="evenodd">
        <g id="cerification_provider2" transform="translate(-689.000000, -609.000000)" stroke="#32334F" stroke-width="2">
            <g id="Group-13" transform="translate(426.000000, 162.000000)">
                <g id="Group-5" transform="translate(0.000000, 296.000000)">
                    <g id="section" transform="translate(0.000000, 68.000000)">
                        <g id="yes" transform="translate(1.000000, 40.000000)">
                            <g id="Group-3" transform="translate(254.000000, 44.000000)">
                                <g id="migration" transform="translate(9.000000, 0.000000)">
                                    <path d="M30,54 L30,22" id="Path"></path>
                                    <polyline id="Path" stroke-linecap="square" points="20 32 30 22 40 32"></polyline>
                                    <path d="M38,40 L50,40 C55.6,39.5 60,34.7 60,29 C60,23.2 55.6,18.5 49.9,18 C48.9,7.9 40.4,0 30,0 C21,0 13.4,6 10.9,14.2 C4.7,15.2 0,20.5 0,27 C0,33.8 5.3,39.5 12,40 L22,40" id="Path" stroke-linecap="square"></path>
                                </g>
                            </g>
                        </g>
                    </g>
                </g>
            </g>
        </g>
    </g>
</svg>