<?xml version="1.0" encoding="UTF-8"?>
<svg width="742px" height="45px" viewBox="0 0 742 45" version="1.1" xmlns="http://www.w3.org/2000/svg" xmlns:xlink="http://www.w3.org/1999/xlink">
    <!-- Generator: Sketch 55.2 (78181) - https://sketchapp.com -->
    <title>providerProgress2</title>
    <desc>Created with Sketch.</desc>
    <g id="Catapillr-app" stroke="none" stroke-width="1" fill="none" fill-rule="evenodd">
        <g id="Provider-Progress-Bars" transform="translate(-33.000000, -101.000000)">
            <g id="providerProgress2" transform="translate(32.000000, 101.000000)">
                <g id="1.-Business-Details">
                    <g id="1" transform="translate(40.000000, 0.000000)">
                        <path d="M7.2056216,1.46666667 C4.6179886,3.33071691 2.93333333,6.36991701 2.93333333,9.80258942 C2.93333333,15.4727129 7.52987657,20.0692561 13.2,20.0692561 C14.2661075,20.0692561 15.2942616,19.906758 16.2610451,19.6051788 C14.5743994,20.8201859 12.5041177,21.5359228 10.2666667,21.5359228 C4.59654324,21.5359228 4.54747351e-13,16.9393795 4.54747351e-13,11.2692561 C4.54747351e-13,6.66524019 3.03053952,2.76904473 7.2056216,1.46666667 Z" id="Path" fill="#14BECB" fill-rule="nonzero" opacity="0.5"></path>
                        <circle id="Oval" fill="#14BECB" fill-rule="nonzero" cx="11.7333333" cy="10.2666667" r="10.2666667"></circle>
                        <polygon id="Tick" stroke="#FFFFFF" stroke-linecap="round" stroke-linejoin="round" points="4 10.8444444 5.95555556 8.88888889 8.88888889 11.8222222 16.7111111 4 18.6666667 5.95555556 8.88888889 15.7333333"></polygon>
                    </g>
                    <text id="Business-Details" opacity="0.6" font-family="Ubuntu-Regular, Ubuntu" font-size="14" font-weight="normal" line-spacing="20" fill="#32334F">
                        <tspan x="0.12" y="39">Business Details</tspan>
                    </text>
                </g>
                <g id="2.-UBOs" transform="translate(161.000000, 0.000000)">
                    <g id="2" transform="translate(7.000000, 0.000000)" fill-rule="nonzero">
                        <path d="M7.2056216,1.46666667 C4.6179886,3.33071691 2.93333333,6.36991701 2.93333333,9.80258942 C2.93333333,15.4727129 7.52987657,20.0692561 13.2,20.0692561 C14.2661075,20.0692561 15.2942616,19.906758 16.2610451,19.6051788 C14.5743994,20.8201859 12.5041177,21.5359228 10.2666667,21.5359228 C4.59654324,21.5359228 4.54747351e-13,16.9393795 4.54747351e-13,11.2692561 C4.54747351e-13,6.66524019 3.03053952,2.76904473 7.2056216,1.46666667 Z" id="Path" fill="#14BECB" opacity="0.5"></path>
                        <circle id="Oval" fill="#14BECB" cx="11.7333333" cy="10.2666667" r="10.2666667"></circle>
                        <path d="M14.754,7.702 C14.754,8.03800168 14.686334,8.36233177 14.551,8.675 C14.415666,8.98766823 14.2360011,9.29566515 14.012,9.599 C13.7879989,9.90233485 13.5360014,10.2009985 13.256,10.495 C12.9759986,10.7890015 12.6960014,11.0759986 12.416,11.356 C12.2573325,11.5146675 12.073001,11.7013323 11.863,11.916 C11.6529989,12.1306677 11.4546676,12.3546655 11.268,12.588 C11.0813324,12.8213345 10.9250006,13.0453323 10.799,13.26 C10.6729994,13.4746677 10.61,13.6613325 10.61,13.82 L15.076,13.82 L15.076,14.926 L9.196,14.926 C9.18666662,14.8699997 9.182,14.8140003 9.182,14.758 L9.182,14.604 C9.182,14.1653311 9.25433261,13.7570019 9.399,13.379 C9.54366739,13.0009981 9.7326655,12.6440017 9.966,12.308 C10.1993345,11.9719983 10.4606652,11.6546682 10.75,11.356 C11.0393348,11.0573318 11.3239986,10.7680014 11.604,10.488 C11.8373345,10.2639989 12.0589989,10.0423344 12.269,9.823 C12.479001,9.60366557 12.6656658,9.38433443 12.829,9.165 C12.9923341,8.94566557 13.1229995,8.7193345 13.221,8.486 C13.3190005,8.2526655 13.368,8.00533464 13.368,7.744 C13.368,7.4639986 13.3236671,7.22600098 13.235,7.03 C13.1463329,6.83399902 13.0273341,6.67066732 12.878,6.54 C12.7286659,6.40933268 12.5536677,6.31366697 12.353,6.253 C12.1523323,6.19233303 11.9400011,6.162 11.716,6.162 C11.445332,6.162 11.1980011,6.19933296 10.974,6.274 C10.7499989,6.34866704 10.5493342,6.43499951 10.372,6.533 C10.1946658,6.63100049 10.0453339,6.73366613 9.924,6.841 C9.80266606,6.94833387 9.70933366,7.02999972 9.644,7.086 L9,6.162 C9.08400042,6.0686662 9.20999916,5.95433401 9.378,5.819 C9.54600084,5.68366599 9.7466655,5.55533394 9.98,5.434 C10.2133345,5.31266606 10.4746652,5.21000042 10.764,5.126 C11.0533348,5.04199958 11.3659983,5 11.702,5 C12.7193384,5 13.4823308,5.23566431 13.991,5.707 C14.4996692,6.17833569 14.754,6.84332904 14.754,7.702 Z" fill="#FFFFFF"></path>
                    </g>
                    <text id="UBOs" opacity="0.6" font-family="Ubuntu-Regular, Ubuntu" font-size="14" font-weight="normal" line-spacing="20" fill="#32334F">
                        <tspan x="0.115" y="39">UBOs</tspan>
                    </text>
                </g>
                <g id="3.-Documents" transform="translate(271.000000, 1.000000)">
                    <g id="3" opacity="0.5" transform="translate(25.000000, 0.000000)" fill-rule="nonzero">
                        <path d="M7.2056216,1.46666667 C4.6179886,3.33071691 2.93333333,6.36991701 2.93333333,9.80258942 C2.93333333,15.4727129 7.52987657,20.0692561 13.2,20.0692561 C14.2661075,20.0692561 15.2942616,19.906758 16.2610451,19.6051788 C14.5743994,20.8201859 12.5041177,21.5359228 10.2666667,21.5359228 C4.59654324,21.5359228 4.54747351e-13,16.9393795 4.54747351e-13,11.2692561 C4.54747351e-13,6.66524019 3.03053952,2.76904473 7.2056216,1.46666667 Z" id="Path" fill="#14BECB"></path>
                        <circle id="Oval" fill="#14BECB" cx="11.7333333" cy="10.2666667" r="10.2666667"></circle>
                        <path d="M11.6436523,15.2666016 C10.4860944,15.2666016 9.64642186,14.9487336 9.12460935,14.3129883 C8.60279685,13.6772429 8.34189451,12.9036504 8.34189451,11.9921875 L9.62705076,11.9921875 C9.68173853,12.6256542 9.80022693,13.0859361 9.98251951,13.3730469 C10.3015315,13.8880234 10.8780231,14.1455078 11.7120117,14.1455078 C12.3591503,14.1455078 12.8786764,13.9723325 13.2706054,13.6259766 C13.6625345,13.2796207 13.8584961,12.8330105 13.8584961,12.2861328 C13.8584961,11.6116503 13.6522807,11.1399753 13.2398437,10.8710938 C12.8274068,10.6022122 12.2543331,10.4677734 11.5206054,10.4677734 C11.4385738,10.4677734 11.355404,10.4689127 11.2710937,10.4711914 C11.1867834,10.4734701 11.101335,10.476888 11.0147461,10.4814453 L11.0147461,9.39453125 C11.1423509,9.40820319 11.2494462,9.41731769 11.3360351,9.421875 C11.4226241,9.42643231 11.5160477,9.42871094 11.6163086,9.42871094 C12.0765973,9.42871094 12.4548488,9.355795 12.7510742,9.20996094 C13.270608,8.95475133 13.5303711,8.49902672 13.5303711,7.84277344 C13.5303711,7.35514079 13.3571957,6.97916799 13.0108398,6.71484375 C12.6644839,6.45051951 12.2611676,6.31835938 11.8008789,6.31835938 C10.9805623,6.31835938 10.4131851,6.59179414 10.0987304,7.13867188 C9.9255525,7.43945463 9.8275717,7.86783576 9.80478513,8.42382812 L8.58798826,8.42382812 C8.58798826,7.69465781 8.73382013,7.07487234 9.02548826,6.56445312 C9.52679285,5.65299023 10.40862,5.19726562 11.6709961,5.19726562 C12.6690479,5.19726562 13.4415011,5.41943137 13.9883789,5.86376953 C14.5352566,6.30810769 14.8086914,6.9518187 14.8086914,7.79492188 C14.8086914,8.39648738 14.6469091,8.88411271 14.3233398,9.2578125 C14.122818,9.49023554 13.863055,9.67252538 13.5440429,9.8046875 C14.0590195,9.94596425 14.4611964,10.2182597 14.7505859,10.621582 C15.0399754,11.0249044 15.1846679,11.5182262 15.1846679,12.1015625 C15.1846679,13.035812 14.8770538,13.7968721 14.2618164,14.3847656 C13.6465789,14.9726592 12.7738663,15.2666016 11.6436523,15.2666016 Z" fill="#FFFFFF"></path>
                    </g>
                    <text id="Documents" opacity="0.4" font-family="Ubuntu-Regular, Ubuntu" font-size="14" font-weight="normal" line-spacing="20" fill="#32334F">
                        <tspan x="0.212" y="38">Documents</tspan>
                    </text>
                </g>
                <g id="4.-Bank-Details" transform="translate(395.000000, 1.000000)">
                    <g id="4" opacity="0.5" transform="translate(29.000000, 0.000000)" fill-rule="nonzero">
                        <path d="M7.2056216,1.46666667 C4.6179886,3.33071691 2.93333333,6.36991701 2.93333333,9.80258942 C2.93333333,15.4727129 7.52987657,20.0692561 13.2,20.0692561 C14.2661075,20.0692561 15.2942616,19.906758 16.2610451,19.6051788 C14.5743994,20.8201859 12.5041177,21.5359228 10.2666667,21.5359228 C4.59654324,21.5359228 0,16.9393795 0,11.2692561 C0,6.66524019 3.03053952,2.76904473 7.2056216,1.46666667 Z" id="Path" fill="#14BECB"></path>
                        <circle id="Oval" fill="#14BECB" cx="11.7333333" cy="10.2666667" r="10.2666667"></circle>
                        <path d="M11.7348633,11.5341797 L11.7348633,7.09765625 L8.59716797,11.5341797 L11.7348633,11.5341797 Z M11.7553711,15 L11.7553711,12.6074219 L7.46240234,12.6074219 L7.46240234,11.4042969 L11.9467773,5.18359375 L12.9858398,5.18359375 L12.9858398,11.5341797 L14.4282227,11.5341797 L14.4282227,12.6074219 L12.9858398,12.6074219 L12.9858398,15 L11.7553711,15 Z" fill="#FFFFFF"></path>
                    </g>
                    <text id="Bank-Details" opacity="0.4" font-family="Ubuntu-Regular, Ubuntu" font-size="14" font-weight="normal" line-spacing="20" fill="#32334F">
                        <tspan x="0.38" y="38">Bank Details</tspan>
                    </text>
                </g>
                <g id="5.-Summary" transform="translate(543.000000, 1.000000)">
                    <g id="5" opacity="0.5" transform="translate(19.000000, 0.000000)" fill-rule="nonzero">
                        <path d="M7.2056216,1.46666667 C4.6179886,3.33071691 2.93333333,6.36991701 2.93333333,9.80258942 C2.93333333,15.4727129 7.52987657,20.0692561 13.2,20.0692561 C14.2661075,20.0692561 15.2942616,19.906758 16.2610451,19.6051788 C14.5743994,20.8201859 12.5041177,21.5359228 10.2666667,21.5359228 C4.59654324,21.5359228 4.54747351e-13,16.9393795 4.54747351e-13,11.2692561 C4.54747351e-13,6.66524019 3.03053952,2.76904473 7.2056216,1.46666667 Z" id="Path" fill="#14BECB"></path>
                        <circle id="Oval" fill="#14BECB" cx="11.7333333" cy="10.2666667" r="10.2666667"></circle>
                        <path d="M9.83642578,12.3048828 C9.91845744,13.0067092 10.2443005,13.4920559 10.8139648,13.7609375 C11.105633,13.8976569 11.4428692,13.9660156 11.8256836,13.9660156 C12.5548539,13.9660156 13.0948876,13.733596 13.4458008,13.26875 C13.796714,12.8039039 13.972168,12.2889351 13.972168,11.7238281 C13.972168,11.0402309 13.763674,10.5115904 13.3466797,10.1378906 C12.9296854,9.76419079 12.4295277,9.5773437 11.8461914,9.5773437 C11.4223612,9.5773437 11.0589208,9.65937413 10.7558594,9.82343745 C10.452798,9.98750077 10.1941742,10.2153631 9.97998047,10.5070312 L8.91357422,10.4455078 L9.65869141,5.17499995 L14.7446289,5.17499995 L14.7446289,6.36445308 L10.581543,6.36445308 L10.1645508,9.0851562 C10.3924165,8.91197825 10.6088857,8.78209674 10.8139648,8.69550776 C11.17855,8.54511639 11.6000953,8.46992183 12.0786133,8.46992183 C12.9764042,8.46992183 13.7374643,8.75930695 14.3618164,9.33808589 C14.9861685,9.91686483 15.2983398,10.6505814 15.2983398,11.5392578 C15.2983398,12.4643926 15.0123727,13.2801396 14.4404297,13.9865234 C13.8684867,14.6929071 12.9558982,15.0460937 11.7026367,15.0460937 C10.9051067,15.0460937 10.1998729,14.8216493 9.58691406,14.3727539 C8.97395527,13.9238584 8.6310225,13.2345749 8.55810547,12.3048828 L9.83642578,12.3048828 Z" fill="#FFFFFF"></path>
                    </g>
                    <text id="Summary" opacity="0.4" font-family="Ubuntu-Regular, Ubuntu" font-size="14" font-weight="normal" line-spacing="20" fill="#32334F">
                        <tspan x="0.369" y="38">Summary</tspan>
                    </text>
                </g>
                <g id="6.-Confirmation" transform="translate(659.000000, 1.000000)">
                    <g id="6" opacity="0.5" transform="translate(31.000000, 0.000000)">
                        <path d="M7.2056216,1.46666667 C4.6179886,3.33071691 2.93333333,6.36991701 2.93333333,9.80258942 C2.93333333,15.4727129 7.52987657,20.0692561 13.2,20.0692561 C14.2661075,20.0692561 15.2942616,19.906758 16.2610451,19.6051788 C14.5743994,20.8201859 12.5041177,21.5359228 10.2666667,21.5359228 C4.59654324,21.5359228 4.54747351e-13,16.9393795 4.54747351e-13,11.2692561 C4.54747351e-13,6.66524019 3.03053952,2.76904473 7.2056216,1.46666667 Z" id="Path" fill="#14BECB" fill-rule="nonzero"></path>
                        <circle id="Oval" fill="#14BECB" fill-rule="nonzero" cx="11.7333333" cy="10.2666667" r="10.2666667"></circle>
                        <text font-family="Ubuntu-Regular, Ubuntu" font-size="14" font-weight="normal" fill="#FFFFFF">
                            <tspan x="8.052" y="14.8">6</tspan>
                        </text>
                    </g>
                    <text id="Confirmation" opacity="0.4" font-family="Ubuntu-Regular, Ubuntu" font-size="14" font-weight="normal" line-spacing="20" fill="#32334F">
                        <tspan x="0.423" y="38">Confirmation</tspan>
                    </text>
                </g>
                <g id="Lines" transform="translate(70.000000, 10.500000)" stroke="#14BECB" stroke-dasharray="3">
                    <path d="M90,0.5 L0,0.5" id="Line-1"></path>
                    <path d="M218,0.5 L128,0.5" id="Line-2" opacity="0.5"></path>
                    <path d="M346,1.5 L256,1.5" id="Line-3" opacity="0.5"></path>
                    <path d="M484,1.5 L384,1.5" id="Line-4" opacity="0.5"></path>
                    <path d="M612,1.5 L522,1.5" id="Line-5" opacity="0.5"></path>
                </g>
            </g>
        </g>
    </g>
</svg>